<?xml version="1.0" encoding="utf-8" standalone="no"?>
<!DOCTYPE svg PUBLIC "-//W3C//DTD SVG 1.1//EN"
  "http://www.w3.org/Graphics/SVG/1.1/DTD/svg11.dtd">
<svg xmlns:xlink="http://www.w3.org/1999/xlink" width="864pt" height="576pt" viewBox="0 0 864 576" xmlns="http://www.w3.org/2000/svg" version="1.1">
 <metadata>
  <rdf:RDF xmlns:dc="http://purl.org/dc/elements/1.1/" xmlns:cc="http://creativecommons.org/ns#" xmlns:rdf="http://www.w3.org/1999/02/22-rdf-syntax-ns#">
   <cc:Work>
    <dc:type rdf:resource="http://purl.org/dc/dcmitype/StillImage"/>
    <dc:date>2024-03-04T12:49:00.550809</dc:date>
    <dc:format>image/svg+xml</dc:format>
    <dc:creator>
     <cc:Agent>
      <dc:title>Matplotlib v3.8.0, https://matplotlib.org/</dc:title>
     </cc:Agent>
    </dc:creator>
   </cc:Work>
  </rdf:RDF>
 </metadata>
 <defs>
  <style type="text/css">*{stroke-linejoin: round; stroke-linecap: butt}</style>
 </defs>
 <g id="figure_1">
  <g id="patch_1">
   <path d="M 0 576 
L 864 576 
L 864 0 
L 0 0 
z
" style="fill: #ffffff"/>
  </g>
  <g id="axes_1">
   <g id="patch_2">
    <path d="M 108 512.64 
L 777.6 512.64 
L 777.6 69.12 
L 108 69.12 
z
" style="fill: #ffffff"/>
   </g>
   <g id="patch_3">
    <path d="M 138.436364 452.104964 
L 210.051337 452.104964 
L 210.051337 412.683567 
L 138.436364 412.683567 
z
" clip-path="url(#peaf5f6edcc)" style="fill: #6495ed; opacity: 0.7"/>
   </g>
   <g id="patch_4">
    <path d="M 227.95508 452.104964 
L 299.570053 452.104964 
L 299.570053 488.426018 
L 227.95508 488.426018 
z
" clip-path="url(#peaf5f6edcc)" style="fill: #b0c4de; opacity: 0.7"/>
   </g>
   <g id="patch_5">
    <path d="M 317.473797 452.104964 
L 389.08877 452.104964 
L 389.08877 121.335538 
L 317.473797 121.335538 
z
" clip-path="url(#peaf5f6edcc)" style="fill: #ffa500; opacity: 0.7"/>
   </g>
   <g id="patch_6">
    <path d="M 406.992513 452.104964 
L 478.607487 452.104964 
L 478.607487 405.360749 
L 406.992513 405.360749 
z
" clip-path="url(#peaf5f6edcc)" style="fill: #ffd700; opacity: 0.7"/>
   </g>
   <g id="patch_7">
    <path d="M 496.51123 452.104964 
L 568.126203 452.104964 
L 568.126203 336.532813 
L 496.51123 336.532813 
z
" clip-path="url(#peaf5f6edcc)" style="fill: #2e8b57; opacity: 0.7"/>
   </g>
   <g id="patch_8">
    <path d="M 586.029947 452.104964 
L 657.64492 452.104964 
L 657.64492 365.931891 
L 586.029947 365.931891 
z
" clip-path="url(#peaf5f6edcc)" style="fill: #3cb371; opacity: 0.7"/>
   </g>
   <g id="patch_9">
    <path d="M 675.548663 452.104964 
L 747.163636 452.104964 
L 747.163636 468.524061 
L 675.548663 468.524061 
z
" clip-path="url(#peaf5f6edcc)" style="fill: #8fbc8f; opacity: 0.7"/>
   </g>
   <g id="matplotlib.axis_1">
    <g id="xtick_1">
     <g id="line2d_1">
      <defs>
       <path id="m273c1a8352" d="M 0 0 
L 0 3.5 
" style="stroke: #000000; stroke-width: 0.8"/>
      </defs>
      <g>
       <use xlink:href="#m273c1a8352" x="174.24385" y="512.64" style="stroke: #000000; stroke-width: 0.8"/>
      </g>
     </g>
     <g id="text_1">
      <!-- Team Composition -->
      <g transform="translate(85.569124 613.750609) rotate(-45) scale(0.16 -0.16)">
       <defs>
        <path id="TimesNewRomanPSMT-54" d="M 3703 4238 
L 3750 3244 
L 3631 3244 
Q 3597 3506 3538 3619 
Q 3441 3800 3280 3886 
Q 3119 3972 2856 3972 
L 2259 3972 
L 2259 734 
Q 2259 344 2344 247 
Q 2463 116 2709 116 
L 2856 116 
L 2856 0 
L 1059 0 
L 1059 116 
L 1209 116 
Q 1478 116 1591 278 
Q 1659 378 1659 734 
L 1659 3972 
L 1150 3972 
Q 853 3972 728 3928 
Q 566 3869 450 3700 
Q 334 3531 313 3244 
L 194 3244 
L 244 4238 
L 3703 4238 
z
" transform="scale(0.015625)"/>
        <path id="TimesNewRomanPSMT-65" d="M 681 1784 
Q 678 1147 991 784 
Q 1303 422 1725 422 
Q 2006 422 2214 576 
Q 2422 731 2563 1106 
L 2659 1044 
Q 2594 616 2278 264 
Q 1963 -88 1488 -88 
Q 972 -88 605 314 
Q 238 716 238 1394 
Q 238 2128 614 2539 
Q 991 2950 1559 2950 
Q 2041 2950 2350 2633 
Q 2659 2316 2659 1784 
L 681 1784 
z
M 681 1966 
L 2006 1966 
Q 1991 2241 1941 2353 
Q 1863 2528 1708 2628 
Q 1553 2728 1384 2728 
Q 1125 2728 920 2526 
Q 716 2325 681 1966 
z
" transform="scale(0.015625)"/>
        <path id="TimesNewRomanPSMT-61" d="M 1822 413 
Q 1381 72 1269 19 
Q 1100 -59 909 -59 
Q 613 -59 420 144 
Q 228 347 228 678 
Q 228 888 322 1041 
Q 450 1253 767 1440 
Q 1084 1628 1822 1897 
L 1822 2009 
Q 1822 2438 1686 2597 
Q 1550 2756 1291 2756 
Q 1094 2756 978 2650 
Q 859 2544 859 2406 
L 866 2225 
Q 866 2081 792 2003 
Q 719 1925 600 1925 
Q 484 1925 411 2006 
Q 338 2088 338 2228 
Q 338 2497 613 2722 
Q 888 2947 1384 2947 
Q 1766 2947 2009 2819 
Q 2194 2722 2281 2516 
Q 2338 2381 2338 1966 
L 2338 994 
Q 2338 584 2353 492 
Q 2369 400 2405 369 
Q 2441 338 2488 338 
Q 2538 338 2575 359 
Q 2641 400 2828 588 
L 2828 413 
Q 2478 -56 2159 -56 
Q 2006 -56 1915 50 
Q 1825 156 1822 413 
z
M 1822 616 
L 1822 1706 
Q 1350 1519 1213 1441 
Q 966 1303 859 1153 
Q 753 1003 753 825 
Q 753 600 887 451 
Q 1022 303 1197 303 
Q 1434 303 1822 616 
z
" transform="scale(0.015625)"/>
        <path id="TimesNewRomanPSMT-6d" d="M 1050 2338 
Q 1363 2650 1419 2697 
Q 1559 2816 1721 2881 
Q 1884 2947 2044 2947 
Q 2313 2947 2506 2790 
Q 2700 2634 2766 2338 
Q 3088 2713 3309 2830 
Q 3531 2947 3766 2947 
Q 3994 2947 4170 2830 
Q 4347 2713 4450 2447 
Q 4519 2266 4519 1878 
L 4519 647 
Q 4519 378 4559 278 
Q 4591 209 4675 161 
Q 4759 113 4950 113 
L 4950 0 
L 3538 0 
L 3538 113 
L 3597 113 
Q 3781 113 3884 184 
Q 3956 234 3988 344 
Q 4000 397 4000 647 
L 4000 1878 
Q 4000 2228 3916 2372 
Q 3794 2572 3525 2572 
Q 3359 2572 3192 2489 
Q 3025 2406 2788 2181 
L 2781 2147 
L 2788 2013 
L 2788 647 
Q 2788 353 2820 281 
Q 2853 209 2943 161 
Q 3034 113 3253 113 
L 3253 0 
L 1806 0 
L 1806 113 
Q 2044 113 2133 169 
Q 2222 225 2256 338 
Q 2272 391 2272 647 
L 2272 1878 
Q 2272 2228 2169 2381 
Q 2031 2581 1784 2581 
Q 1616 2581 1450 2491 
Q 1191 2353 1050 2181 
L 1050 647 
Q 1050 366 1089 281 
Q 1128 197 1204 155 
Q 1281 113 1516 113 
L 1516 0 
L 100 0 
L 100 113 
Q 297 113 375 155 
Q 453 197 493 289 
Q 534 381 534 647 
L 534 1741 
Q 534 2213 506 2350 
Q 484 2453 437 2492 
Q 391 2531 309 2531 
Q 222 2531 100 2484 
L 53 2597 
L 916 2947 
L 1050 2947 
L 1050 2338 
z
" transform="scale(0.015625)"/>
        <path id="TimesNewRomanPSMT-20" transform="scale(0.015625)"/>
        <path id="TimesNewRomanPSMT-43" d="M 3853 4334 
L 3950 2894 
L 3853 2894 
Q 3659 3541 3300 3825 
Q 2941 4109 2438 4109 
Q 2016 4109 1675 3895 
Q 1334 3681 1139 3212 
Q 944 2744 944 2047 
Q 944 1472 1128 1050 
Q 1313 628 1683 403 
Q 2053 178 2528 178 
Q 2941 178 3256 354 
Q 3572 531 3950 1056 
L 4047 994 
Q 3728 428 3303 165 
Q 2878 -97 2294 -97 
Q 1241 -97 663 684 
Q 231 1266 231 2053 
Q 231 2688 515 3219 
Q 800 3750 1298 4042 
Q 1797 4334 2388 4334 
Q 2847 4334 3294 4109 
Q 3425 4041 3481 4041 
Q 3566 4041 3628 4100 
Q 3709 4184 3744 4334 
L 3853 4334 
z
" transform="scale(0.015625)"/>
        <path id="TimesNewRomanPSMT-6f" d="M 1600 2947 
Q 2250 2947 2644 2453 
Q 2978 2031 2978 1484 
Q 2978 1100 2793 706 
Q 2609 313 2286 112 
Q 1963 -88 1566 -88 
Q 919 -88 538 428 
Q 216 863 216 1403 
Q 216 1797 411 2186 
Q 606 2575 925 2761 
Q 1244 2947 1600 2947 
z
M 1503 2744 
Q 1338 2744 1170 2645 
Q 1003 2547 900 2300 
Q 797 2053 797 1666 
Q 797 1041 1045 587 
Q 1294 134 1700 134 
Q 2003 134 2200 384 
Q 2397 634 2397 1244 
Q 2397 2006 2069 2444 
Q 1847 2744 1503 2744 
z
" transform="scale(0.015625)"/>
        <path id="TimesNewRomanPSMT-70" d="M -6 2578 
L 875 2934 
L 994 2934 
L 994 2266 
Q 1216 2644 1439 2795 
Q 1663 2947 1909 2947 
Q 2341 2947 2628 2609 
Q 2981 2197 2981 1534 
Q 2981 794 2556 309 
Q 2206 -88 1675 -88 
Q 1444 -88 1275 -22 
Q 1150 25 994 166 
L 994 -706 
Q 994 -1000 1030 -1079 
Q 1066 -1159 1155 -1206 
Q 1244 -1253 1478 -1253 
L 1478 -1369 
L -22 -1369 
L -22 -1253 
L 56 -1253 
Q 228 -1256 350 -1188 
Q 409 -1153 442 -1076 
Q 475 -1000 475 -688 
L 475 2019 
Q 475 2297 450 2372 
Q 425 2447 370 2484 
Q 316 2522 222 2522 
Q 147 2522 31 2478 
L -6 2578 
z
M 994 2081 
L 994 1013 
Q 994 666 1022 556 
Q 1066 375 1236 237 
Q 1406 100 1666 100 
Q 1978 100 2172 344 
Q 2425 663 2425 1241 
Q 2425 1897 2138 2250 
Q 1938 2494 1663 2494 
Q 1513 2494 1366 2419 
Q 1253 2363 994 2081 
z
" transform="scale(0.015625)"/>
        <path id="TimesNewRomanPSMT-73" d="M 2050 2947 
L 2050 1972 
L 1947 1972 
Q 1828 2431 1642 2597 
Q 1456 2763 1169 2763 
Q 950 2763 815 2647 
Q 681 2531 681 2391 
Q 681 2216 781 2091 
Q 878 1963 1175 1819 
L 1631 1597 
Q 2266 1288 2266 781 
Q 2266 391 1970 151 
Q 1675 -88 1309 -88 
Q 1047 -88 709 6 
Q 606 38 541 38 
Q 469 38 428 -44 
L 325 -44 
L 325 978 
L 428 978 
Q 516 541 762 319 
Q 1009 97 1316 97 
Q 1531 97 1667 223 
Q 1803 350 1803 528 
Q 1803 744 1651 891 
Q 1500 1038 1047 1263 
Q 594 1488 453 1669 
Q 313 1847 313 2119 
Q 313 2472 555 2709 
Q 797 2947 1181 2947 
Q 1350 2947 1591 2875 
Q 1750 2828 1803 2828 
Q 1853 2828 1881 2850 
Q 1909 2872 1947 2947 
L 2050 2947 
z
" transform="scale(0.015625)"/>
        <path id="TimesNewRomanPSMT-69" d="M 928 4444 
Q 1059 4444 1151 4351 
Q 1244 4259 1244 4128 
Q 1244 3997 1151 3903 
Q 1059 3809 928 3809 
Q 797 3809 703 3903 
Q 609 3997 609 4128 
Q 609 4259 701 4351 
Q 794 4444 928 4444 
z
M 1188 2947 
L 1188 647 
Q 1188 378 1227 289 
Q 1266 200 1342 156 
Q 1419 113 1622 113 
L 1622 0 
L 231 0 
L 231 113 
Q 441 113 512 153 
Q 584 194 626 287 
Q 669 381 669 647 
L 669 1750 
Q 669 2216 641 2353 
Q 619 2453 572 2492 
Q 525 2531 444 2531 
Q 356 2531 231 2484 
L 188 2597 
L 1050 2947 
L 1188 2947 
z
" transform="scale(0.015625)"/>
        <path id="TimesNewRomanPSMT-74" d="M 1031 3803 
L 1031 2863 
L 1700 2863 
L 1700 2644 
L 1031 2644 
L 1031 788 
Q 1031 509 1111 412 
Q 1191 316 1316 316 
Q 1419 316 1516 380 
Q 1613 444 1666 569 
L 1788 569 
Q 1678 263 1478 108 
Q 1278 -47 1066 -47 
Q 922 -47 784 33 
Q 647 113 581 261 
Q 516 409 516 719 
L 516 2644 
L 63 2644 
L 63 2747 
Q 234 2816 414 2980 
Q 594 3144 734 3369 
Q 806 3488 934 3803 
L 1031 3803 
z
" transform="scale(0.015625)"/>
        <path id="TimesNewRomanPSMT-6e" d="M 1034 2341 
Q 1538 2947 1994 2947 
Q 2228 2947 2397 2830 
Q 2566 2713 2666 2444 
Q 2734 2256 2734 1869 
L 2734 647 
Q 2734 375 2778 278 
Q 2813 200 2889 156 
Q 2966 113 3172 113 
L 3172 0 
L 1756 0 
L 1756 113 
L 1816 113 
Q 2016 113 2095 173 
Q 2175 234 2206 353 
Q 2219 400 2219 647 
L 2219 1819 
Q 2219 2209 2117 2386 
Q 2016 2563 1775 2563 
Q 1403 2563 1034 2156 
L 1034 647 
Q 1034 356 1069 288 
Q 1113 197 1189 155 
Q 1266 113 1500 113 
L 1500 0 
L 84 0 
L 84 113 
L 147 113 
Q 366 113 442 223 
Q 519 334 519 647 
L 519 1709 
Q 519 2225 495 2337 
Q 472 2450 423 2490 
Q 375 2531 294 2531 
Q 206 2531 84 2484 
L 38 2597 
L 900 2947 
L 1034 2947 
L 1034 2341 
z
" transform="scale(0.015625)"/>
       </defs>
       <use xlink:href="#TimesNewRomanPSMT-54"/>
       <use xlink:href="#TimesNewRomanPSMT-65" x="54.083984"/>
       <use xlink:href="#TimesNewRomanPSMT-61" x="98.46875"/>
       <use xlink:href="#TimesNewRomanPSMT-6d" x="142.853516"/>
       <use xlink:href="#TimesNewRomanPSMT-20" x="220.636719"/>
       <use xlink:href="#TimesNewRomanPSMT-43" x="245.636719"/>
       <use xlink:href="#TimesNewRomanPSMT-6f" x="312.335938"/>
       <use xlink:href="#TimesNewRomanPSMT-6d" x="362.335938"/>
       <use xlink:href="#TimesNewRomanPSMT-70" x="440.119141"/>
       <use xlink:href="#TimesNewRomanPSMT-6f" x="490.119141"/>
       <use xlink:href="#TimesNewRomanPSMT-73" x="540.119141"/>
       <use xlink:href="#TimesNewRomanPSMT-69" x="579.035156"/>
       <use xlink:href="#TimesNewRomanPSMT-74" x="606.818359"/>
       <use xlink:href="#TimesNewRomanPSMT-69" x="634.601562"/>
       <use xlink:href="#TimesNewRomanPSMT-6f" x="662.384766"/>
       <use xlink:href="#TimesNewRomanPSMT-6e" x="712.384766"/>
      </g>
     </g>
    </g>
    <g id="xtick_2">
     <g id="line2d_2">
      <g>
       <use xlink:href="#m273c1a8352" x="263.762567" y="512.64" style="stroke: #000000; stroke-width: 0.8"/>
      </g>
     </g>
     <g id="text_2">
      <!-- Team Size -->
      <g transform="translate(214.072406 574.766045) rotate(-45) scale(0.16 -0.16)">
       <defs>
        <path id="TimesNewRomanPSMT-53" d="M 2934 4334 
L 2934 2869 
L 2819 2869 
Q 2763 3291 2617 3541 
Q 2472 3791 2203 3937 
Q 1934 4084 1647 4084 
Q 1322 4084 1109 3886 
Q 897 3688 897 3434 
Q 897 3241 1031 3081 
Q 1225 2847 1953 2456 
Q 2547 2138 2764 1967 
Q 2981 1797 3098 1565 
Q 3216 1334 3216 1081 
Q 3216 600 2842 251 
Q 2469 -97 1881 -97 
Q 1697 -97 1534 -69 
Q 1438 -53 1133 45 
Q 828 144 747 144 
Q 669 144 623 97 
Q 578 50 556 -97 
L 441 -97 
L 441 1356 
L 556 1356 
Q 638 900 775 673 
Q 913 447 1195 297 
Q 1478 147 1816 147 
Q 2206 147 2432 353 
Q 2659 559 2659 841 
Q 2659 997 2573 1156 
Q 2488 1316 2306 1453 
Q 2184 1547 1640 1851 
Q 1097 2156 867 2337 
Q 638 2519 519 2737 
Q 400 2956 400 3219 
Q 400 3675 750 4004 
Q 1100 4334 1641 4334 
Q 1978 4334 2356 4169 
Q 2531 4091 2603 4091 
Q 2684 4091 2736 4139 
Q 2788 4188 2819 4334 
L 2934 4334 
z
" transform="scale(0.015625)"/>
        <path id="TimesNewRomanPSMT-7a" d="M 2688 878 
L 2653 0 
L 128 0 
L 128 113 
L 2028 2644 
L 1091 2644 
Q 788 2644 694 2605 
Q 600 2566 541 2456 
Q 456 2300 444 2069 
L 319 2069 
L 338 2863 
L 2738 2863 
L 2738 2747 
L 819 209 
L 1863 209 
Q 2191 209 2308 264 
Q 2425 319 2497 456 
Q 2547 556 2581 878 
L 2688 878 
z
" transform="scale(0.015625)"/>
       </defs>
       <use xlink:href="#TimesNewRomanPSMT-54"/>
       <use xlink:href="#TimesNewRomanPSMT-65" x="54.083984"/>
       <use xlink:href="#TimesNewRomanPSMT-61" x="98.46875"/>
       <use xlink:href="#TimesNewRomanPSMT-6d" x="142.853516"/>
       <use xlink:href="#TimesNewRomanPSMT-20" x="220.636719"/>
       <use xlink:href="#TimesNewRomanPSMT-53" x="245.636719"/>
       <use xlink:href="#TimesNewRomanPSMT-69" x="301.251953"/>
       <use xlink:href="#TimesNewRomanPSMT-7a" x="329.035156"/>
       <use xlink:href="#TimesNewRomanPSMT-65" x="373.419922"/>
      </g>
     </g>
    </g>
    <g id="xtick_3">
     <g id="line2d_3">
      <g>
       <use xlink:href="#m273c1a8352" x="353.281283" y="512.64" style="stroke: #000000; stroke-width: 0.8"/>
      </g>
     </g>
     <g id="text_3">
      <!-- Task Attributes -->
      <g transform="translate(282.204678 596.152489) rotate(-45) scale(0.16 -0.16)">
       <defs>
        <path id="TimesNewRomanPSMT-6b" d="M 1047 4444 
L 1047 1594 
L 1775 2259 
Q 2006 2472 2044 2528 
Q 2069 2566 2069 2603 
Q 2069 2666 2017 2711 
Q 1966 2756 1847 2763 
L 1847 2863 
L 3091 2863 
L 3091 2763 
Q 2834 2756 2664 2684 
Q 2494 2613 2291 2428 
L 1556 1750 
L 2291 822 
Q 2597 438 2703 334 
Q 2853 188 2966 144 
Q 3044 113 3238 113 
L 3238 0 
L 1847 0 
L 1847 113 
Q 1966 116 2008 148 
Q 2050 181 2050 241 
Q 2050 313 1925 472 
L 1047 1594 
L 1047 644 
Q 1047 366 1086 278 
Q 1125 191 1197 153 
Q 1269 116 1509 113 
L 1509 0 
L 53 0 
L 53 113 
Q 272 113 381 166 
Q 447 200 481 272 
Q 528 375 528 628 
L 528 3234 
Q 528 3731 506 3842 
Q 484 3953 434 3995 
Q 384 4038 303 4038 
Q 238 4038 106 3984 
L 53 4094 
L 903 4444 
L 1047 4444 
z
" transform="scale(0.015625)"/>
        <path id="TimesNewRomanPSMT-41" d="M 2928 1419 
L 1288 1419 
L 1000 750 
Q 894 503 894 381 
Q 894 284 986 211 
Q 1078 138 1384 116 
L 1384 0 
L 50 0 
L 50 116 
Q 316 163 394 238 
Q 553 388 747 847 
L 2238 4334 
L 2347 4334 
L 3822 809 
Q 4000 384 4145 257 
Q 4291 131 4550 116 
L 4550 0 
L 2878 0 
L 2878 116 
Q 3131 128 3220 200 
Q 3309 272 3309 375 
Q 3309 513 3184 809 
L 2928 1419 
z
M 2841 1650 
L 2122 3363 
L 1384 1650 
L 2841 1650 
z
" transform="scale(0.015625)"/>
        <path id="TimesNewRomanPSMT-72" d="M 1038 2947 
L 1038 2303 
Q 1397 2947 1775 2947 
Q 1947 2947 2059 2842 
Q 2172 2738 2172 2600 
Q 2172 2478 2090 2393 
Q 2009 2309 1897 2309 
Q 1788 2309 1652 2417 
Q 1516 2525 1450 2525 
Q 1394 2525 1328 2463 
Q 1188 2334 1038 2041 
L 1038 669 
Q 1038 431 1097 309 
Q 1138 225 1241 169 
Q 1344 113 1538 113 
L 1538 0 
L 72 0 
L 72 113 
Q 291 113 397 181 
Q 475 231 506 341 
Q 522 394 522 644 
L 522 1753 
Q 522 2253 501 2348 
Q 481 2444 426 2487 
Q 372 2531 291 2531 
Q 194 2531 72 2484 
L 41 2597 
L 906 2947 
L 1038 2947 
z
" transform="scale(0.015625)"/>
        <path id="TimesNewRomanPSMT-62" d="M 984 2369 
Q 1400 2947 1881 2947 
Q 2322 2947 2650 2570 
Q 2978 2194 2978 1541 
Q 2978 778 2472 313 
Q 2038 -88 1503 -88 
Q 1253 -88 995 3 
Q 738 94 469 275 
L 469 3241 
Q 469 3728 445 3840 
Q 422 3953 372 3993 
Q 322 4034 247 4034 
Q 159 4034 28 3984 
L -16 4094 
L 844 4444 
L 984 4444 
L 984 2369 
z
M 984 2169 
L 984 456 
Q 1144 300 1314 220 
Q 1484 141 1663 141 
Q 1947 141 2192 453 
Q 2438 766 2438 1363 
Q 2438 1913 2192 2208 
Q 1947 2503 1634 2503 
Q 1469 2503 1303 2419 
Q 1178 2356 984 2169 
z
" transform="scale(0.015625)"/>
        <path id="TimesNewRomanPSMT-75" d="M 2709 2863 
L 2709 1128 
Q 2709 631 2732 520 
Q 2756 409 2807 365 
Q 2859 322 2928 322 
Q 3025 322 3147 375 
L 3191 266 
L 2334 -88 
L 2194 -88 
L 2194 519 
Q 1825 119 1631 15 
Q 1438 -88 1222 -88 
Q 981 -88 804 51 
Q 628 191 559 409 
Q 491 628 491 1028 
L 491 2306 
Q 491 2509 447 2587 
Q 403 2666 317 2708 
Q 231 2750 6 2747 
L 6 2863 
L 1009 2863 
L 1009 947 
Q 1009 547 1148 422 
Q 1288 297 1484 297 
Q 1619 297 1789 381 
Q 1959 466 2194 703 
L 2194 2325 
Q 2194 2569 2105 2655 
Q 2016 2741 1734 2747 
L 1734 2863 
L 2709 2863 
z
" transform="scale(0.015625)"/>
       </defs>
       <use xlink:href="#TimesNewRomanPSMT-54"/>
       <use xlink:href="#TimesNewRomanPSMT-61" x="54.083984"/>
       <use xlink:href="#TimesNewRomanPSMT-73" x="98.46875"/>
       <use xlink:href="#TimesNewRomanPSMT-6b" x="137.384766"/>
       <use xlink:href="#TimesNewRomanPSMT-20" x="187.384766"/>
       <use xlink:href="#TimesNewRomanPSMT-41" x="206.884766"/>
       <use xlink:href="#TimesNewRomanPSMT-74" x="279.101562"/>
       <use xlink:href="#TimesNewRomanPSMT-74" x="306.884766"/>
       <use xlink:href="#TimesNewRomanPSMT-72" x="334.667969"/>
       <use xlink:href="#TimesNewRomanPSMT-69" x="367.96875"/>
       <use xlink:href="#TimesNewRomanPSMT-62" x="395.751953"/>
       <use xlink:href="#TimesNewRomanPSMT-75" x="445.751953"/>
       <use xlink:href="#TimesNewRomanPSMT-74" x="495.751953"/>
       <use xlink:href="#TimesNewRomanPSMT-65" x="523.535156"/>
       <use xlink:href="#TimesNewRomanPSMT-73" x="567.919922"/>
      </g>
     </g>
    </g>
    <g id="xtick_4">
     <g id="line2d_4">
      <g>
       <use xlink:href="#m273c1a8352" x="442.8" y="512.64" style="stroke: #000000; stroke-width: 0.8"/>
      </g>
     </g>
     <g id="text_4">
      <!-- Task Complexity -->
      <g transform="translate(362.904005 604.950665) rotate(-45) scale(0.16 -0.16)">
       <defs>
        <path id="TimesNewRomanPSMT-6c" d="M 1184 4444 
L 1184 647 
Q 1184 378 1223 290 
Q 1263 203 1344 158 
Q 1425 113 1647 113 
L 1647 0 
L 244 0 
L 244 113 
Q 441 113 512 153 
Q 584 194 625 287 
Q 666 381 666 647 
L 666 3247 
Q 666 3731 644 3842 
Q 622 3953 573 3993 
Q 525 4034 450 4034 
Q 369 4034 244 3984 
L 191 4094 
L 1044 4444 
L 1184 4444 
z
" transform="scale(0.015625)"/>
        <path id="TimesNewRomanPSMT-78" d="M 84 2863 
L 1431 2863 
L 1431 2747 
Q 1303 2747 1251 2703 
Q 1200 2659 1200 2588 
Q 1200 2513 1309 2356 
Q 1344 2306 1413 2200 
L 1616 1875 
L 1850 2200 
Q 2075 2509 2075 2591 
Q 2075 2656 2022 2701 
Q 1969 2747 1850 2747 
L 1850 2863 
L 2819 2863 
L 2819 2747 
Q 2666 2738 2553 2663 
Q 2400 2556 2134 2200 
L 1744 1678 
L 2456 653 
Q 2719 275 2831 198 
Q 2944 122 3122 113 
L 3122 0 
L 1772 0 
L 1772 113 
Q 1913 113 1991 175 
Q 2050 219 2050 291 
Q 2050 363 1850 653 
L 1431 1266 
L 972 653 
Q 759 369 759 316 
Q 759 241 829 180 
Q 900 119 1041 113 
L 1041 0 
L 106 0 
L 106 113 
Q 219 128 303 191 
Q 422 281 703 653 
L 1303 1450 
L 759 2238 
Q 528 2575 401 2661 
Q 275 2747 84 2747 
L 84 2863 
z
" transform="scale(0.015625)"/>
        <path id="TimesNewRomanPSMT-79" d="M 38 2863 
L 1372 2863 
L 1372 2747 
L 1306 2747 
Q 1166 2747 1095 2686 
Q 1025 2625 1025 2534 
Q 1025 2413 1128 2197 
L 1825 753 
L 2466 2334 
Q 2519 2463 2519 2588 
Q 2519 2644 2497 2672 
Q 2472 2706 2419 2726 
Q 2366 2747 2231 2747 
L 2231 2863 
L 3163 2863 
L 3163 2747 
Q 3047 2734 2984 2696 
Q 2922 2659 2847 2556 
Q 2819 2513 2741 2316 
L 1575 -541 
Q 1406 -956 1132 -1168 
Q 859 -1381 606 -1381 
Q 422 -1381 303 -1275 
Q 184 -1169 184 -1031 
Q 184 -900 270 -820 
Q 356 -741 506 -741 
Q 609 -741 788 -809 
Q 913 -856 944 -856 
Q 1038 -856 1148 -759 
Q 1259 -663 1372 -384 
L 1575 113 
L 547 2272 
Q 500 2369 397 2513 
Q 319 2622 269 2659 
Q 197 2709 38 2747 
L 38 2863 
z
" transform="scale(0.015625)"/>
       </defs>
       <use xlink:href="#TimesNewRomanPSMT-54"/>
       <use xlink:href="#TimesNewRomanPSMT-61" x="54.083984"/>
       <use xlink:href="#TimesNewRomanPSMT-73" x="98.46875"/>
       <use xlink:href="#TimesNewRomanPSMT-6b" x="137.384766"/>
       <use xlink:href="#TimesNewRomanPSMT-20" x="187.384766"/>
       <use xlink:href="#TimesNewRomanPSMT-43" x="212.384766"/>
       <use xlink:href="#TimesNewRomanPSMT-6f" x="279.083984"/>
       <use xlink:href="#TimesNewRomanPSMT-6d" x="329.083984"/>
       <use xlink:href="#TimesNewRomanPSMT-70" x="406.867188"/>
       <use xlink:href="#TimesNewRomanPSMT-6c" x="456.867188"/>
       <use xlink:href="#TimesNewRomanPSMT-65" x="484.650391"/>
       <use xlink:href="#TimesNewRomanPSMT-78" x="529.035156"/>
       <use xlink:href="#TimesNewRomanPSMT-69" x="579.035156"/>
       <use xlink:href="#TimesNewRomanPSMT-74" x="606.818359"/>
       <use xlink:href="#TimesNewRomanPSMT-79" x="634.601562"/>
      </g>
     </g>
    </g>
    <g id="xtick_5">
     <g id="line2d_5">
      <g>
       <use xlink:href="#m273c1a8352" x="532.318717" y="512.64" style="stroke: #000000; stroke-width: 0.8"/>
      </g>
     </g>
     <g id="text_5">
      <!-- Communication (Within Task Instance) -->
      <g transform="translate(351.308219 706.086381) rotate(-45) scale(0.16 -0.16)">
       <defs>
        <path id="TimesNewRomanPSMT-63" d="M 2631 1088 
Q 2516 522 2178 217 
Q 1841 -88 1431 -88 
Q 944 -88 581 321 
Q 219 731 219 1428 
Q 219 2103 620 2525 
Q 1022 2947 1584 2947 
Q 2006 2947 2278 2723 
Q 2550 2500 2550 2259 
Q 2550 2141 2473 2067 
Q 2397 1994 2259 1994 
Q 2075 1994 1981 2113 
Q 1928 2178 1911 2362 
Q 1894 2547 1784 2644 
Q 1675 2738 1481 2738 
Q 1169 2738 978 2506 
Q 725 2200 725 1697 
Q 725 1184 976 792 
Q 1228 400 1656 400 
Q 1963 400 2206 609 
Q 2378 753 2541 1131 
L 2631 1088 
z
" transform="scale(0.015625)"/>
        <path id="TimesNewRomanPSMT-28" d="M 1988 -1253 
L 1988 -1369 
Q 1516 -1131 1200 -813 
Q 750 -359 506 256 
Q 263 872 263 1534 
Q 263 2503 741 3301 
Q 1219 4100 1988 4444 
L 1988 4313 
Q 1603 4100 1356 3731 
Q 1109 3363 987 2797 
Q 866 2231 866 1616 
Q 866 947 969 400 
Q 1050 -31 1165 -292 
Q 1281 -553 1476 -793 
Q 1672 -1034 1988 -1253 
z
" transform="scale(0.015625)"/>
        <path id="TimesNewRomanPSMT-57" d="M 5991 4238 
L 5991 4122 
Q 5825 4122 5722 4062 
Q 5619 4003 5525 3841 
Q 5463 3731 5328 3319 
L 4147 -97 
L 4022 -97 
L 3056 2613 
L 2097 -97 
L 1984 -97 
L 725 3422 
Q 584 3816 547 3888 
Q 484 4006 376 4064 
Q 269 4122 84 4122 
L 84 4238 
L 1653 4238 
L 1653 4122 
L 1578 4122 
Q 1413 4122 1325 4047 
Q 1238 3972 1238 3866 
Q 1238 3756 1375 3363 
L 2209 984 
L 2913 3006 
L 2788 3363 
L 2688 3647 
Q 2622 3803 2541 3922 
Q 2500 3981 2441 4022 
Q 2363 4078 2284 4103 
Q 2225 4122 2097 4122 
L 2097 4238 
L 3747 4238 
L 3747 4122 
L 3634 4122 
Q 3459 4122 3378 4047 
Q 3297 3972 3297 3844 
Q 3297 3684 3438 3288 
L 4250 984 
L 5056 3319 
Q 5194 3706 5194 3856 
Q 5194 3928 5148 3990 
Q 5103 4053 5034 4078 
Q 4916 4122 4725 4122 
L 4725 4238 
L 5991 4238 
z
" transform="scale(0.015625)"/>
        <path id="TimesNewRomanPSMT-68" d="M 1041 4444 
L 1041 2350 
Q 1388 2731 1591 2839 
Q 1794 2947 1997 2947 
Q 2241 2947 2416 2812 
Q 2591 2678 2675 2391 
Q 2734 2191 2734 1659 
L 2734 647 
Q 2734 375 2778 275 
Q 2809 200 2884 156 
Q 2959 113 3159 113 
L 3159 0 
L 1753 0 
L 1753 113 
L 1819 113 
Q 2019 113 2097 173 
Q 2175 234 2206 353 
Q 2216 403 2216 647 
L 2216 1659 
Q 2216 2128 2167 2275 
Q 2119 2422 2012 2495 
Q 1906 2569 1756 2569 
Q 1603 2569 1437 2487 
Q 1272 2406 1041 2159 
L 1041 647 
Q 1041 353 1073 281 
Q 1106 209 1195 161 
Q 1284 113 1503 113 
L 1503 0 
L 84 0 
L 84 113 
Q 275 113 384 172 
Q 447 203 484 290 
Q 522 378 522 647 
L 522 3238 
Q 522 3728 498 3840 
Q 475 3953 426 3993 
Q 378 4034 297 4034 
Q 231 4034 84 3984 
L 41 4094 
L 897 4444 
L 1041 4444 
z
" transform="scale(0.015625)"/>
        <path id="TimesNewRomanPSMT-49" d="M 1975 116 
L 1975 0 
L 159 0 
L 159 116 
L 309 116 
Q 572 116 691 269 
Q 766 369 766 750 
L 766 3488 
Q 766 3809 725 3913 
Q 694 3991 597 4047 
Q 459 4122 309 4122 
L 159 4122 
L 159 4238 
L 1975 4238 
L 1975 4122 
L 1822 4122 
Q 1563 4122 1444 3969 
Q 1366 3869 1366 3488 
L 1366 750 
Q 1366 428 1406 325 
Q 1438 247 1538 191 
Q 1672 116 1822 116 
L 1975 116 
z
" transform="scale(0.015625)"/>
        <path id="TimesNewRomanPSMT-29" d="M 144 4313 
L 144 4444 
Q 619 4209 934 3891 
Q 1381 3434 1625 2820 
Q 1869 2206 1869 1541 
Q 1869 572 1392 -226 
Q 916 -1025 144 -1369 
L 144 -1253 
Q 528 -1038 776 -670 
Q 1025 -303 1145 264 
Q 1266 831 1266 1447 
Q 1266 2113 1163 2663 
Q 1084 3094 967 3353 
Q 850 3613 656 3853 
Q 463 4094 144 4313 
z
" transform="scale(0.015625)"/>
       </defs>
       <use xlink:href="#TimesNewRomanPSMT-43"/>
       <use xlink:href="#TimesNewRomanPSMT-6f" x="66.699219"/>
       <use xlink:href="#TimesNewRomanPSMT-6d" x="116.699219"/>
       <use xlink:href="#TimesNewRomanPSMT-6d" x="194.482422"/>
       <use xlink:href="#TimesNewRomanPSMT-75" x="272.265625"/>
       <use xlink:href="#TimesNewRomanPSMT-6e" x="322.265625"/>
       <use xlink:href="#TimesNewRomanPSMT-69" x="372.265625"/>
       <use xlink:href="#TimesNewRomanPSMT-63" x="400.048828"/>
       <use xlink:href="#TimesNewRomanPSMT-61" x="444.433594"/>
       <use xlink:href="#TimesNewRomanPSMT-74" x="488.818359"/>
       <use xlink:href="#TimesNewRomanPSMT-69" x="516.601562"/>
       <use xlink:href="#TimesNewRomanPSMT-6f" x="544.384766"/>
       <use xlink:href="#TimesNewRomanPSMT-6e" x="594.384766"/>
       <use xlink:href="#TimesNewRomanPSMT-20" x="644.384766"/>
       <use xlink:href="#TimesNewRomanPSMT-28" x="669.384766"/>
       <use xlink:href="#TimesNewRomanPSMT-57" x="702.685547"/>
       <use xlink:href="#TimesNewRomanPSMT-69" x="793.070312"/>
       <use xlink:href="#TimesNewRomanPSMT-74" x="820.853516"/>
       <use xlink:href="#TimesNewRomanPSMT-68" x="848.636719"/>
       <use xlink:href="#TimesNewRomanPSMT-69" x="898.636719"/>
       <use xlink:href="#TimesNewRomanPSMT-6e" x="926.419922"/>
       <use xlink:href="#TimesNewRomanPSMT-20" x="976.419922"/>
       <use xlink:href="#TimesNewRomanPSMT-54" x="999.669922"/>
       <use xlink:href="#TimesNewRomanPSMT-61" x="1053.753906"/>
       <use xlink:href="#TimesNewRomanPSMT-73" x="1098.138672"/>
       <use xlink:href="#TimesNewRomanPSMT-6b" x="1137.054688"/>
       <use xlink:href="#TimesNewRomanPSMT-20" x="1187.054688"/>
       <use xlink:href="#TimesNewRomanPSMT-49" x="1212.054688"/>
       <use xlink:href="#TimesNewRomanPSMT-6e" x="1245.355469"/>
       <use xlink:href="#TimesNewRomanPSMT-73" x="1295.355469"/>
       <use xlink:href="#TimesNewRomanPSMT-74" x="1334.271484"/>
       <use xlink:href="#TimesNewRomanPSMT-61" x="1362.054688"/>
       <use xlink:href="#TimesNewRomanPSMT-6e" x="1406.439453"/>
       <use xlink:href="#TimesNewRomanPSMT-63" x="1456.439453"/>
       <use xlink:href="#TimesNewRomanPSMT-65" x="1500.824219"/>
       <use xlink:href="#TimesNewRomanPSMT-29" x="1545.208984"/>
      </g>
     </g>
    </g>
    <g id="xtick_6">
     <g id="line2d_6">
      <g>
       <use xlink:href="#m273c1a8352" x="621.837433" y="512.64" style="stroke: #000000; stroke-width: 0.8"/>
      </g>
     </g>
     <g id="text_6">
      <!-- Communication (Within Task Class) -->
      <g transform="translate(454.002103 692.911213) rotate(-45) scale(0.16 -0.16)">
       <use xlink:href="#TimesNewRomanPSMT-43"/>
       <use xlink:href="#TimesNewRomanPSMT-6f" x="66.699219"/>
       <use xlink:href="#TimesNewRomanPSMT-6d" x="116.699219"/>
       <use xlink:href="#TimesNewRomanPSMT-6d" x="194.482422"/>
       <use xlink:href="#TimesNewRomanPSMT-75" x="272.265625"/>
       <use xlink:href="#TimesNewRomanPSMT-6e" x="322.265625"/>
       <use xlink:href="#TimesNewRomanPSMT-69" x="372.265625"/>
       <use xlink:href="#TimesNewRomanPSMT-63" x="400.048828"/>
       <use xlink:href="#TimesNewRomanPSMT-61" x="444.433594"/>
       <use xlink:href="#TimesNewRomanPSMT-74" x="488.818359"/>
       <use xlink:href="#TimesNewRomanPSMT-69" x="516.601562"/>
       <use xlink:href="#TimesNewRomanPSMT-6f" x="544.384766"/>
       <use xlink:href="#TimesNewRomanPSMT-6e" x="594.384766"/>
       <use xlink:href="#TimesNewRomanPSMT-20" x="644.384766"/>
       <use xlink:href="#TimesNewRomanPSMT-28" x="669.384766"/>
       <use xlink:href="#TimesNewRomanPSMT-57" x="702.685547"/>
       <use xlink:href="#TimesNewRomanPSMT-69" x="793.070312"/>
       <use xlink:href="#TimesNewRomanPSMT-74" x="820.853516"/>
       <use xlink:href="#TimesNewRomanPSMT-68" x="848.636719"/>
       <use xlink:href="#TimesNewRomanPSMT-69" x="898.636719"/>
       <use xlink:href="#TimesNewRomanPSMT-6e" x="926.419922"/>
       <use xlink:href="#TimesNewRomanPSMT-20" x="976.419922"/>
       <use xlink:href="#TimesNewRomanPSMT-54" x="999.669922"/>
       <use xlink:href="#TimesNewRomanPSMT-61" x="1053.753906"/>
       <use xlink:href="#TimesNewRomanPSMT-73" x="1098.138672"/>
       <use xlink:href="#TimesNewRomanPSMT-6b" x="1137.054688"/>
       <use xlink:href="#TimesNewRomanPSMT-20" x="1187.054688"/>
       <use xlink:href="#TimesNewRomanPSMT-43" x="1212.054688"/>
       <use xlink:href="#TimesNewRomanPSMT-6c" x="1278.753906"/>
       <use xlink:href="#TimesNewRomanPSMT-61" x="1306.537109"/>
       <use xlink:href="#TimesNewRomanPSMT-73" x="1350.921875"/>
       <use xlink:href="#TimesNewRomanPSMT-73" x="1389.837891"/>
       <use xlink:href="#TimesNewRomanPSMT-29" x="1428.753906"/>
      </g>
     </g>
    </g>
    <g id="xtick_7">
     <g id="line2d_7">
      <g>
       <use xlink:href="#m273c1a8352" x="711.35615" y="512.64" style="stroke: #000000; stroke-width: 0.8"/>
      </g>
     </g>
     <g id="text_7">
      <!-- Communication (Cumulative) -->
      <g transform="translate(572.878125 663.553908) rotate(-45) scale(0.16 -0.16)">
       <defs>
        <path id="TimesNewRomanPSMT-76" d="M 53 2863 
L 1400 2863 
L 1400 2747 
L 1313 2747 
Q 1191 2747 1127 2687 
Q 1063 2628 1063 2528 
Q 1063 2419 1128 2269 
L 1794 688 
L 2463 2328 
Q 2534 2503 2534 2594 
Q 2534 2638 2509 2666 
Q 2475 2713 2422 2730 
Q 2369 2747 2206 2747 
L 2206 2863 
L 3141 2863 
L 3141 2747 
Q 2978 2734 2916 2681 
Q 2806 2588 2719 2369 
L 1703 -88 
L 1575 -88 
L 553 2328 
Q 484 2497 421 2570 
Q 359 2644 263 2694 
Q 209 2722 53 2747 
L 53 2863 
z
" transform="scale(0.015625)"/>
       </defs>
       <use xlink:href="#TimesNewRomanPSMT-43"/>
       <use xlink:href="#TimesNewRomanPSMT-6f" x="66.699219"/>
       <use xlink:href="#TimesNewRomanPSMT-6d" x="116.699219"/>
       <use xlink:href="#TimesNewRomanPSMT-6d" x="194.482422"/>
       <use xlink:href="#TimesNewRomanPSMT-75" x="272.265625"/>
       <use xlink:href="#TimesNewRomanPSMT-6e" x="322.265625"/>
       <use xlink:href="#TimesNewRomanPSMT-69" x="372.265625"/>
       <use xlink:href="#TimesNewRomanPSMT-63" x="400.048828"/>
       <use xlink:href="#TimesNewRomanPSMT-61" x="444.433594"/>
       <use xlink:href="#TimesNewRomanPSMT-74" x="488.818359"/>
       <use xlink:href="#TimesNewRomanPSMT-69" x="516.601562"/>
       <use xlink:href="#TimesNewRomanPSMT-6f" x="544.384766"/>
       <use xlink:href="#TimesNewRomanPSMT-6e" x="594.384766"/>
       <use xlink:href="#TimesNewRomanPSMT-20" x="644.384766"/>
       <use xlink:href="#TimesNewRomanPSMT-28" x="669.384766"/>
       <use xlink:href="#TimesNewRomanPSMT-43" x="702.685547"/>
       <use xlink:href="#TimesNewRomanPSMT-75" x="769.384766"/>
       <use xlink:href="#TimesNewRomanPSMT-6d" x="819.384766"/>
       <use xlink:href="#TimesNewRomanPSMT-75" x="897.167969"/>
       <use xlink:href="#TimesNewRomanPSMT-6c" x="947.167969"/>
       <use xlink:href="#TimesNewRomanPSMT-61" x="974.951172"/>
       <use xlink:href="#TimesNewRomanPSMT-74" x="1019.335938"/>
       <use xlink:href="#TimesNewRomanPSMT-69" x="1047.119141"/>
       <use xlink:href="#TimesNewRomanPSMT-76" x="1074.902344"/>
       <use xlink:href="#TimesNewRomanPSMT-65" x="1124.902344"/>
       <use xlink:href="#TimesNewRomanPSMT-29" x="1169.287109"/>
      </g>
     </g>
    </g>
   </g>
   <g id="matplotlib.axis_2">
    <g id="ytick_1">
     <g id="line2d_8">
      <defs>
       <path id="m34ea1c9e9c" d="M 0 0 
L -3.5 0 
" style="stroke: #000000; stroke-width: 0.8"/>
      </defs>
      <g>
       <use xlink:href="#m34ea1c9e9c" x="108" y="452.104964" style="stroke: #000000; stroke-width: 0.8"/>
      </g>
     </g>
     <g id="text_8">
      <!-- 0.00 -->
      <g transform="translate(69.5 458.354339) scale(0.18 -0.18)">
       <defs>
        <path id="TimesNewRomanPSMT-30" d="M 231 2094 
Q 231 2819 450 3342 
Q 669 3866 1031 4122 
Q 1313 4325 1613 4325 
Q 2100 4325 2488 3828 
Q 2972 3213 2972 2159 
Q 2972 1422 2759 906 
Q 2547 391 2217 158 
Q 1888 -75 1581 -75 
Q 975 -75 572 641 
Q 231 1244 231 2094 
z
M 844 2016 
Q 844 1141 1059 588 
Q 1238 122 1591 122 
Q 1759 122 1940 273 
Q 2122 425 2216 781 
Q 2359 1319 2359 2297 
Q 2359 3022 2209 3506 
Q 2097 3866 1919 4016 
Q 1791 4119 1609 4119 
Q 1397 4119 1231 3928 
Q 1006 3669 925 3112 
Q 844 2556 844 2016 
z
" transform="scale(0.015625)"/>
        <path id="TimesNewRomanPSMT-2e" d="M 800 606 
Q 947 606 1047 504 
Q 1147 403 1147 259 
Q 1147 116 1045 14 
Q 944 -88 800 -88 
Q 656 -88 554 14 
Q 453 116 453 259 
Q 453 406 554 506 
Q 656 606 800 606 
z
" transform="scale(0.015625)"/>
       </defs>
       <use xlink:href="#TimesNewRomanPSMT-30"/>
       <use xlink:href="#TimesNewRomanPSMT-2e" x="50"/>
       <use xlink:href="#TimesNewRomanPSMT-30" x="75"/>
       <use xlink:href="#TimesNewRomanPSMT-30" x="125"/>
      </g>
     </g>
    </g>
    <g id="ytick_2">
     <g id="line2d_9">
      <g>
       <use xlink:href="#m34ea1c9e9c" x="108" y="366.74658" style="stroke: #000000; stroke-width: 0.8"/>
      </g>
     </g>
     <g id="text_9">
      <!-- 0.05 -->
      <g transform="translate(69.5 372.995955) scale(0.18 -0.18)">
       <defs>
        <path id="TimesNewRomanPSMT-35" d="M 2778 4238 
L 2534 3706 
L 1259 3706 
L 981 3138 
Q 1809 3016 2294 2522 
Q 2709 2097 2709 1522 
Q 2709 1188 2573 903 
Q 2438 619 2231 419 
Q 2025 219 1772 97 
Q 1413 -75 1034 -75 
Q 653 -75 479 54 
Q 306 184 306 341 
Q 306 428 378 495 
Q 450 563 559 563 
Q 641 563 702 538 
Q 763 513 909 409 
Q 1144 247 1384 247 
Q 1750 247 2026 523 
Q 2303 800 2303 1197 
Q 2303 1581 2056 1914 
Q 1809 2247 1375 2428 
Q 1034 2569 447 2591 
L 1259 4238 
L 2778 4238 
z
" transform="scale(0.015625)"/>
       </defs>
       <use xlink:href="#TimesNewRomanPSMT-30"/>
       <use xlink:href="#TimesNewRomanPSMT-2e" x="50"/>
       <use xlink:href="#TimesNewRomanPSMT-30" x="75"/>
       <use xlink:href="#TimesNewRomanPSMT-35" x="125"/>
      </g>
     </g>
    </g>
    <g id="ytick_3">
     <g id="line2d_10">
      <g>
       <use xlink:href="#m34ea1c9e9c" x="108" y="281.388197" style="stroke: #000000; stroke-width: 0.8"/>
      </g>
     </g>
     <g id="text_10">
      <!-- 0.10 -->
      <g transform="translate(69.5 287.637572) scale(0.18 -0.18)">
       <defs>
        <path id="TimesNewRomanPSMT-31" d="M 750 3822 
L 1781 4325 
L 1884 4325 
L 1884 747 
Q 1884 391 1914 303 
Q 1944 216 2037 169 
Q 2131 122 2419 116 
L 2419 0 
L 825 0 
L 825 116 
Q 1125 122 1212 167 
Q 1300 213 1334 289 
Q 1369 366 1369 747 
L 1369 3034 
Q 1369 3497 1338 3628 
Q 1316 3728 1258 3775 
Q 1200 3822 1119 3822 
Q 1003 3822 797 3725 
L 750 3822 
z
" transform="scale(0.015625)"/>
       </defs>
       <use xlink:href="#TimesNewRomanPSMT-30"/>
       <use xlink:href="#TimesNewRomanPSMT-2e" x="50"/>
       <use xlink:href="#TimesNewRomanPSMT-31" x="75"/>
       <use xlink:href="#TimesNewRomanPSMT-30" x="125"/>
      </g>
     </g>
    </g>
    <g id="ytick_4">
     <g id="line2d_11">
      <g>
       <use xlink:href="#m34ea1c9e9c" x="108" y="196.029814" style="stroke: #000000; stroke-width: 0.8"/>
      </g>
     </g>
     <g id="text_11">
      <!-- 0.15 -->
      <g transform="translate(69.5 202.279189) scale(0.18 -0.18)">
       <use xlink:href="#TimesNewRomanPSMT-30"/>
       <use xlink:href="#TimesNewRomanPSMT-2e" x="50"/>
       <use xlink:href="#TimesNewRomanPSMT-31" x="75"/>
       <use xlink:href="#TimesNewRomanPSMT-35" x="125"/>
      </g>
     </g>
    </g>
    <g id="ytick_5">
     <g id="line2d_12">
      <g>
       <use xlink:href="#m34ea1c9e9c" x="108" y="110.67143" style="stroke: #000000; stroke-width: 0.8"/>
      </g>
     </g>
     <g id="text_12">
      <!-- 0.20 -->
      <g transform="translate(69.5 116.920805) scale(0.18 -0.18)">
       <defs>
        <path id="TimesNewRomanPSMT-32" d="M 2934 816 
L 2638 0 
L 138 0 
L 138 116 
Q 1241 1122 1691 1759 
Q 2141 2397 2141 2925 
Q 2141 3328 1894 3587 
Q 1647 3847 1303 3847 
Q 991 3847 742 3664 
Q 494 3481 375 3128 
L 259 3128 
Q 338 3706 661 4015 
Q 984 4325 1469 4325 
Q 1984 4325 2329 3994 
Q 2675 3663 2675 3213 
Q 2675 2891 2525 2569 
Q 2294 2063 1775 1497 
Q 997 647 803 472 
L 1909 472 
Q 2247 472 2383 497 
Q 2519 522 2628 598 
Q 2738 675 2819 816 
L 2934 816 
z
" transform="scale(0.015625)"/>
       </defs>
       <use xlink:href="#TimesNewRomanPSMT-30"/>
       <use xlink:href="#TimesNewRomanPSMT-2e" x="50"/>
       <use xlink:href="#TimesNewRomanPSMT-32" x="75"/>
       <use xlink:href="#TimesNewRomanPSMT-30" x="125"/>
      </g>
     </g>
    </g>
    <g id="text_13">
     <!-- Prediction Q^2 -->
     <g transform="translate(61.649687 345.345469) rotate(-90) scale(0.18 -0.18)">
      <defs>
       <path id="TimesNewRomanPSMT-50" d="M 1313 1984 
L 1313 750 
Q 1313 350 1400 253 
Q 1519 116 1759 116 
L 1922 116 
L 1922 0 
L 106 0 
L 106 116 
L 266 116 
Q 534 116 650 291 
Q 713 388 713 750 
L 713 3488 
Q 713 3888 628 3984 
Q 506 4122 266 4122 
L 106 4122 
L 106 4238 
L 1659 4238 
Q 2228 4238 2556 4120 
Q 2884 4003 3109 3725 
Q 3334 3447 3334 3066 
Q 3334 2547 2992 2222 
Q 2650 1897 2025 1897 
Q 1872 1897 1694 1919 
Q 1516 1941 1313 1984 
z
M 1313 2163 
Q 1478 2131 1606 2115 
Q 1734 2100 1825 2100 
Q 2150 2100 2386 2351 
Q 2622 2603 2622 3003 
Q 2622 3278 2509 3514 
Q 2397 3750 2190 3867 
Q 1984 3984 1722 3984 
Q 1563 3984 1313 3925 
L 1313 2163 
z
" transform="scale(0.015625)"/>
       <path id="TimesNewRomanPSMT-64" d="M 2222 322 
Q 2013 103 1813 7 
Q 1613 -88 1381 -88 
Q 913 -88 563 304 
Q 213 697 213 1313 
Q 213 1928 600 2439 
Q 988 2950 1597 2950 
Q 1975 2950 2222 2709 
L 2222 3238 
Q 2222 3728 2198 3840 
Q 2175 3953 2125 3993 
Q 2075 4034 2000 4034 
Q 1919 4034 1784 3984 
L 1744 4094 
L 2597 4444 
L 2738 4444 
L 2738 1134 
Q 2738 631 2761 520 
Q 2784 409 2836 365 
Q 2888 322 2956 322 
Q 3041 322 3181 375 
L 3216 266 
L 2366 -88 
L 2222 -88 
L 2222 322 
z
M 2222 541 
L 2222 2016 
Q 2203 2228 2109 2403 
Q 2016 2578 1861 2667 
Q 1706 2756 1559 2756 
Q 1284 2756 1069 2509 
Q 784 2184 784 1559 
Q 784 928 1059 592 
Q 1334 256 1672 256 
Q 1956 256 2222 541 
z
" transform="scale(0.015625)"/>
       <path id="TimesNewRomanPSMT-51" d="M 2819 -47 
Q 3138 -597 3508 -856 
Q 3878 -1116 4350 -1153 
L 4350 -1253 
Q 3919 -1238 3428 -1080 
Q 2938 -922 2498 -642 
Q 2059 -363 1741 -47 
Q 1291 134 1028 338 
Q 647 641 436 1083 
Q 225 1525 225 2128 
Q 225 3078 840 3706 
Q 1456 4334 2331 4334 
Q 3163 4334 3770 3704 
Q 4378 3075 4378 2116 
Q 4378 1338 3945 750 
Q 3513 163 2819 -47 
z
M 2294 4094 
Q 1725 4094 1378 3688 
Q 941 3178 941 2128 
Q 941 1100 1384 544 
Q 1728 116 2294 116 
Q 2881 116 3241 544 
Q 3663 1050 3663 2038 
Q 3663 2797 3431 3316 
Q 3253 3716 2958 3905 
Q 2663 4094 2294 4094 
z
" transform="scale(0.015625)"/>
       <path id="TimesNewRomanPSMT-5e" d="M 1556 4325 
L 2884 2084 
L 2597 2084 
L 1503 3916 
L 409 2084 
L 116 2084 
L 1463 4325 
L 1556 4325 
z
" transform="scale(0.015625)"/>
      </defs>
      <use xlink:href="#TimesNewRomanPSMT-50"/>
      <use xlink:href="#TimesNewRomanPSMT-72" x="55.615234"/>
      <use xlink:href="#TimesNewRomanPSMT-65" x="88.916016"/>
      <use xlink:href="#TimesNewRomanPSMT-64" x="133.300781"/>
      <use xlink:href="#TimesNewRomanPSMT-69" x="183.300781"/>
      <use xlink:href="#TimesNewRomanPSMT-63" x="211.083984"/>
      <use xlink:href="#TimesNewRomanPSMT-74" x="255.46875"/>
      <use xlink:href="#TimesNewRomanPSMT-69" x="283.251953"/>
      <use xlink:href="#TimesNewRomanPSMT-6f" x="311.035156"/>
      <use xlink:href="#TimesNewRomanPSMT-6e" x="361.035156"/>
      <use xlink:href="#TimesNewRomanPSMT-20" x="411.035156"/>
      <use xlink:href="#TimesNewRomanPSMT-51" x="436.035156"/>
      <use xlink:href="#TimesNewRomanPSMT-5e" x="508.251953"/>
      <use xlink:href="#TimesNewRomanPSMT-32" x="555.175781"/>
     </g>
    </g>
   </g>
   <g id="LineCollection_1">
    <path d="M 174.24385 422.575386 
L 174.24385 402.791749 
" clip-path="url(#peaf5f6edcc)" style="fill: none; stroke: #000000; stroke-width: 1.5"/>
    <path d="M 263.762567 492.48 
L 263.762567 484.372037 
" clip-path="url(#peaf5f6edcc)" style="fill: none; stroke: #000000; stroke-width: 1.5"/>
    <path d="M 353.281283 133.121966 
L 353.281283 109.549109 
" clip-path="url(#peaf5f6edcc)" style="fill: none; stroke: #000000; stroke-width: 1.5"/>
    <path d="M 442.8 414.265465 
L 442.8 396.456033 
" clip-path="url(#peaf5f6edcc)" style="fill: none; stroke: #000000; stroke-width: 1.5"/>
    <path d="M 532.318717 348.742185 
L 532.318717 324.323441 
" clip-path="url(#peaf5f6edcc)" style="fill: none; stroke: #000000; stroke-width: 1.5"/>
    <path d="M 621.837433 377.039004 
L 621.837433 354.824779 
" clip-path="url(#peaf5f6edcc)" style="fill: none; stroke: #000000; stroke-width: 1.5"/>
    <path d="M 711.35615 475.396485 
L 711.35615 461.651638 
" clip-path="url(#peaf5f6edcc)" style="fill: none; stroke: #000000; stroke-width: 1.5"/>
   </g>
   <g id="line2d_13">
    <defs>
     <path id="m162244cb56" d="M 10 0 
L -10 -0 
" style="stroke: #000000"/>
    </defs>
    <g clip-path="url(#peaf5f6edcc)">
     <use xlink:href="#m162244cb56" x="174.24385" y="422.575386" style="stroke: #000000"/>
     <use xlink:href="#m162244cb56" x="263.762567" y="492.48" style="stroke: #000000"/>
     <use xlink:href="#m162244cb56" x="353.281283" y="133.121966" style="stroke: #000000"/>
     <use xlink:href="#m162244cb56" x="442.8" y="414.265465" style="stroke: #000000"/>
     <use xlink:href="#m162244cb56" x="532.318717" y="348.742185" style="stroke: #000000"/>
     <use xlink:href="#m162244cb56" x="621.837433" y="377.039004" style="stroke: #000000"/>
     <use xlink:href="#m162244cb56" x="711.35615" y="475.396485" style="stroke: #000000"/>
    </g>
   </g>
   <g id="line2d_14">
    <g clip-path="url(#peaf5f6edcc)">
     <use xlink:href="#m162244cb56" x="174.24385" y="402.791749" style="stroke: #000000"/>
     <use xlink:href="#m162244cb56" x="263.762567" y="484.372037" style="stroke: #000000"/>
     <use xlink:href="#m162244cb56" x="353.281283" y="109.549109" style="stroke: #000000"/>
     <use xlink:href="#m162244cb56" x="442.8" y="396.456033" style="stroke: #000000"/>
     <use xlink:href="#m162244cb56" x="532.318717" y="324.323441" style="stroke: #000000"/>
     <use xlink:href="#m162244cb56" x="621.837433" y="354.824779" style="stroke: #000000"/>
     <use xlink:href="#m162244cb56" x="711.35615" y="461.651638" style="stroke: #000000"/>
    </g>
   </g>
   <g id="line2d_15">
    <path d="M 108 452.104964 
L 777.6 452.104964 
" clip-path="url(#peaf5f6edcc)" style="fill: none; stroke-dasharray: 5.55,2.4; stroke-dashoffset: 0; stroke: #808080; stroke-width: 1.5"/>
   </g>
   <g id="line2d_16">
    <path d="M 174.24385 89.28 
L 442.8 89.28 
" clip-path="url(#peaf5f6edcc)" style="fill: none; stroke: #000000; stroke-width: 1.5; stroke-linecap: square"/>
   </g>
   <g id="patch_10">
    <path d="M 108 512.64 
L 108 69.12 
" style="fill: none; stroke: #000000; stroke-width: 0.8; stroke-linejoin: miter; stroke-linecap: square"/>
   </g>
   <g id="patch_11">
    <path d="M 777.6 512.64 
L 777.6 69.12 
" style="fill: none; stroke: #000000; stroke-width: 0.8; stroke-linejoin: miter; stroke-linecap: square"/>
   </g>
   <g id="patch_12">
    <path d="M 108 512.64 
L 777.6 512.64 
" style="fill: none; stroke: #000000; stroke-width: 0.8; stroke-linejoin: miter; stroke-linecap: square"/>
   </g>
   <g id="patch_13">
    <path d="M 108 69.12 
L 777.6 69.12 
" style="fill: none; stroke: #000000; stroke-width: 0.8; stroke-linejoin: miter; stroke-linecap: square"/>
   </g>
   <g id="text_14">
    <!-- n.s. -->
    <g transform="translate(301.575831 83.413108) scale(0.1 -0.1)">
     <use xlink:href="#TimesNewRomanPSMT-6e"/>
     <use xlink:href="#TimesNewRomanPSMT-2e" x="50"/>
     <use xlink:href="#TimesNewRomanPSMT-73" x="75"/>
     <use xlink:href="#TimesNewRomanPSMT-2e" x="113.916016"/>
    </g>
   </g>
   <g id="text_15">
    <!-- Team Facet Predictive Power at Task Class Unit of Analysis (n = 423) -->
    <g transform="translate(162.675 63.12) scale(0.2 -0.2)">
     <defs>
      <path id="TimesNewRomanPSMT-46" d="M 1309 4006 
L 1309 2341 
L 2081 2341 
Q 2347 2341 2470 2458 
Q 2594 2575 2634 2922 
L 2750 2922 
L 2750 1488 
L 2634 1488 
Q 2631 1734 2570 1850 
Q 2509 1966 2401 2023 
Q 2294 2081 2081 2081 
L 1309 2081 
L 1309 750 
Q 1309 428 1350 325 
Q 1381 247 1481 191 
Q 1619 116 1769 116 
L 1922 116 
L 1922 0 
L 103 0 
L 103 116 
L 253 116 
Q 516 116 634 269 
Q 709 369 709 750 
L 709 3488 
Q 709 3809 669 3913 
Q 638 3991 541 4047 
Q 406 4122 253 4122 
L 103 4122 
L 103 4238 
L 3256 4238 
L 3297 3306 
L 3188 3306 
Q 3106 3603 2998 3742 
Q 2891 3881 2733 3943 
Q 2575 4006 2244 4006 
L 1309 4006 
z
" transform="scale(0.015625)"/>
      <path id="TimesNewRomanPSMT-77" d="M 41 2863 
L 1241 2863 
L 1241 2747 
Q 1075 2734 1023 2687 
Q 972 2641 972 2553 
Q 972 2456 1025 2319 
L 1638 672 
L 2253 2013 
L 2091 2434 
Q 2016 2622 1894 2694 
Q 1825 2738 1638 2747 
L 1638 2863 
L 3000 2863 
L 3000 2747 
Q 2775 2738 2681 2666 
Q 2619 2616 2619 2506 
Q 2619 2444 2644 2378 
L 3294 734 
L 3897 2319 
Q 3959 2488 3959 2588 
Q 3959 2647 3898 2694 
Q 3838 2741 3659 2747 
L 3659 2863 
L 4563 2863 
L 4563 2747 
Q 4291 2706 4163 2378 
L 3206 -88 
L 3078 -88 
L 2363 1741 
L 1528 -88 
L 1413 -88 
L 494 2319 
Q 403 2547 315 2626 
Q 228 2706 41 2747 
L 41 2863 
z
" transform="scale(0.015625)"/>
      <path id="TimesNewRomanPSMT-55" d="M 3053 4122 
L 3053 4238 
L 4553 4238 
L 4553 4122 
L 4394 4122 
Q 4144 4122 4009 3913 
Q 3944 3816 3944 3463 
L 3944 1744 
Q 3944 1106 3817 754 
Q 3691 403 3320 151 
Q 2950 -100 2313 -100 
Q 1619 -100 1259 140 
Q 900 381 750 788 
Q 650 1066 650 1831 
L 650 3488 
Q 650 3878 542 4000 
Q 434 4122 194 4122 
L 34 4122 
L 34 4238 
L 1866 4238 
L 1866 4122 
L 1703 4122 
Q 1441 4122 1328 3956 
Q 1250 3844 1250 3488 
L 1250 1641 
Q 1250 1394 1295 1075 
Q 1341 756 1459 578 
Q 1578 400 1801 284 
Q 2025 169 2350 169 
Q 2766 169 3094 350 
Q 3422 531 3542 814 
Q 3663 1097 3663 1772 
L 3663 3488 
Q 3663 3884 3575 3984 
Q 3453 4122 3213 4122 
L 3053 4122 
z
" transform="scale(0.015625)"/>
      <path id="TimesNewRomanPSMT-66" d="M 1319 2638 
L 1319 756 
Q 1319 356 1406 250 
Q 1522 113 1716 113 
L 1975 113 
L 1975 0 
L 266 0 
L 266 113 
L 394 113 
Q 519 113 622 175 
Q 725 238 764 344 
Q 803 450 803 756 
L 803 2638 
L 247 2638 
L 247 2863 
L 803 2863 
L 803 3050 
Q 803 3478 940 3775 
Q 1078 4072 1361 4255 
Q 1644 4438 1997 4438 
Q 2325 4438 2600 4225 
Q 2781 4084 2781 3909 
Q 2781 3816 2700 3733 
Q 2619 3650 2525 3650 
Q 2453 3650 2373 3701 
Q 2294 3753 2178 3923 
Q 2063 4094 1966 4153 
Q 1869 4213 1750 4213 
Q 1606 4213 1506 4136 
Q 1406 4059 1362 3898 
Q 1319 3738 1319 3069 
L 1319 2863 
L 2056 2863 
L 2056 2638 
L 1319 2638 
z
" transform="scale(0.015625)"/>
      <path id="TimesNewRomanPSMT-3d" d="M 116 2759 
L 3488 2759 
L 3488 2503 
L 116 2503 
L 116 2759 
z
M 116 1741 
L 3488 1741 
L 3488 1484 
L 116 1484 
L 116 1741 
z
" transform="scale(0.015625)"/>
      <path id="TimesNewRomanPSMT-34" d="M 2978 1563 
L 2978 1119 
L 2409 1119 
L 2409 0 
L 1894 0 
L 1894 1119 
L 100 1119 
L 100 1519 
L 2066 4325 
L 2409 4325 
L 2409 1563 
L 2978 1563 
z
M 1894 1563 
L 1894 3666 
L 406 1563 
L 1894 1563 
z
" transform="scale(0.015625)"/>
      <path id="TimesNewRomanPSMT-33" d="M 325 3431 
Q 506 3859 782 4092 
Q 1059 4325 1472 4325 
Q 1981 4325 2253 3994 
Q 2459 3747 2459 3466 
Q 2459 3003 1878 2509 
Q 2269 2356 2469 2072 
Q 2669 1788 2669 1403 
Q 2669 853 2319 450 
Q 1863 -75 997 -75 
Q 569 -75 414 31 
Q 259 138 259 259 
Q 259 350 332 419 
Q 406 488 509 488 
Q 588 488 669 463 
Q 722 447 909 348 
Q 1097 250 1169 231 
Q 1284 197 1416 197 
Q 1734 197 1970 444 
Q 2206 691 2206 1028 
Q 2206 1275 2097 1509 
Q 2016 1684 1919 1775 
Q 1784 1900 1550 2001 
Q 1316 2103 1072 2103 
L 972 2103 
L 972 2197 
Q 1219 2228 1467 2375 
Q 1716 2522 1828 2728 
Q 1941 2934 1941 3181 
Q 1941 3503 1739 3701 
Q 1538 3900 1238 3900 
Q 753 3900 428 3381 
L 325 3431 
z
" transform="scale(0.015625)"/>
     </defs>
     <use xlink:href="#TimesNewRomanPSMT-54"/>
     <use xlink:href="#TimesNewRomanPSMT-65" x="54.083984"/>
     <use xlink:href="#TimesNewRomanPSMT-61" x="98.46875"/>
     <use xlink:href="#TimesNewRomanPSMT-6d" x="142.853516"/>
     <use xlink:href="#TimesNewRomanPSMT-20" x="220.636719"/>
     <use xlink:href="#TimesNewRomanPSMT-46" x="245.636719"/>
     <use xlink:href="#TimesNewRomanPSMT-61" x="301.251953"/>
     <use xlink:href="#TimesNewRomanPSMT-63" x="345.636719"/>
     <use xlink:href="#TimesNewRomanPSMT-65" x="390.021484"/>
     <use xlink:href="#TimesNewRomanPSMT-74" x="434.40625"/>
     <use xlink:href="#TimesNewRomanPSMT-20" x="462.189453"/>
     <use xlink:href="#TimesNewRomanPSMT-50" x="487.189453"/>
     <use xlink:href="#TimesNewRomanPSMT-72" x="542.804688"/>
     <use xlink:href="#TimesNewRomanPSMT-65" x="576.105469"/>
     <use xlink:href="#TimesNewRomanPSMT-64" x="620.490234"/>
     <use xlink:href="#TimesNewRomanPSMT-69" x="670.490234"/>
     <use xlink:href="#TimesNewRomanPSMT-63" x="698.273438"/>
     <use xlink:href="#TimesNewRomanPSMT-74" x="742.658203"/>
     <use xlink:href="#TimesNewRomanPSMT-69" x="770.441406"/>
     <use xlink:href="#TimesNewRomanPSMT-76" x="798.224609"/>
     <use xlink:href="#TimesNewRomanPSMT-65" x="848.224609"/>
     <use xlink:href="#TimesNewRomanPSMT-20" x="892.609375"/>
     <use xlink:href="#TimesNewRomanPSMT-50" x="917.609375"/>
     <use xlink:href="#TimesNewRomanPSMT-6f" x="973.224609"/>
     <use xlink:href="#TimesNewRomanPSMT-77" x="1023.224609"/>
     <use xlink:href="#TimesNewRomanPSMT-65" x="1095.441406"/>
     <use xlink:href="#TimesNewRomanPSMT-72" x="1139.826172"/>
     <use xlink:href="#TimesNewRomanPSMT-20" x="1173.126953"/>
     <use xlink:href="#TimesNewRomanPSMT-61" x="1198.126953"/>
     <use xlink:href="#TimesNewRomanPSMT-74" x="1242.511719"/>
     <use xlink:href="#TimesNewRomanPSMT-20" x="1270.294922"/>
     <use xlink:href="#TimesNewRomanPSMT-54" x="1293.544922"/>
     <use xlink:href="#TimesNewRomanPSMT-61" x="1347.628906"/>
     <use xlink:href="#TimesNewRomanPSMT-73" x="1392.013672"/>
     <use xlink:href="#TimesNewRomanPSMT-6b" x="1430.929688"/>
     <use xlink:href="#TimesNewRomanPSMT-20" x="1480.929688"/>
     <use xlink:href="#TimesNewRomanPSMT-43" x="1505.929688"/>
     <use xlink:href="#TimesNewRomanPSMT-6c" x="1572.628906"/>
     <use xlink:href="#TimesNewRomanPSMT-61" x="1600.412109"/>
     <use xlink:href="#TimesNewRomanPSMT-73" x="1644.796875"/>
     <use xlink:href="#TimesNewRomanPSMT-73" x="1683.712891"/>
     <use xlink:href="#TimesNewRomanPSMT-20" x="1722.628906"/>
     <use xlink:href="#TimesNewRomanPSMT-55" x="1747.628906"/>
     <use xlink:href="#TimesNewRomanPSMT-6e" x="1819.845703"/>
     <use xlink:href="#TimesNewRomanPSMT-69" x="1869.845703"/>
     <use xlink:href="#TimesNewRomanPSMT-74" x="1897.628906"/>
     <use xlink:href="#TimesNewRomanPSMT-20" x="1925.412109"/>
     <use xlink:href="#TimesNewRomanPSMT-6f" x="1950.412109"/>
     <use xlink:href="#TimesNewRomanPSMT-66" x="2000.412109"/>
     <use xlink:href="#TimesNewRomanPSMT-20" x="2033.712891"/>
     <use xlink:href="#TimesNewRomanPSMT-41" x="2053.212891"/>
     <use xlink:href="#TimesNewRomanPSMT-6e" x="2125.429688"/>
     <use xlink:href="#TimesNewRomanPSMT-61" x="2175.429688"/>
     <use xlink:href="#TimesNewRomanPSMT-6c" x="2219.814453"/>
     <use xlink:href="#TimesNewRomanPSMT-79" x="2247.597656"/>
     <use xlink:href="#TimesNewRomanPSMT-73" x="2297.597656"/>
     <use xlink:href="#TimesNewRomanPSMT-69" x="2336.513672"/>
     <use xlink:href="#TimesNewRomanPSMT-73" x="2364.296875"/>
     <use xlink:href="#TimesNewRomanPSMT-20" x="2403.212891"/>
     <use xlink:href="#TimesNewRomanPSMT-28" x="2428.212891"/>
     <use xlink:href="#TimesNewRomanPSMT-6e" x="2461.513672"/>
     <use xlink:href="#TimesNewRomanPSMT-20" x="2511.513672"/>
     <use xlink:href="#TimesNewRomanPSMT-3d" x="2536.513672"/>
     <use xlink:href="#TimesNewRomanPSMT-20" x="2592.910156"/>
     <use xlink:href="#TimesNewRomanPSMT-34" x="2617.910156"/>
     <use xlink:href="#TimesNewRomanPSMT-32" x="2667.910156"/>
     <use xlink:href="#TimesNewRomanPSMT-33" x="2717.910156"/>
     <use xlink:href="#TimesNewRomanPSMT-29" x="2767.910156"/>
    </g>
   </g>
  </g>
 </g>
 <defs>
  <clipPath id="peaf5f6edcc">
   <rect x="108" y="69.12" width="669.6" height="443.52"/>
  </clipPath>
 </defs>
</svg>
